<?xml version="1.0" encoding="UTF-8"?><svg id="Layer_2" xmlns="http://www.w3.org/2000/svg" viewBox="0 0 1046.43 968.25"><defs><style>.cls-1{fill:#bbb;}.cls-1,.cls-2,.cls-3,.cls-4,.cls-5,.cls-6,.cls-7,.cls-8,.cls-9,.cls-10,.cls-11,.cls-12,.cls-13,.cls-14,.cls-15,.cls-16,.cls-17,.cls-18,.cls-19,.cls-20,.cls-21,.cls-22,.cls-23,.cls-24,.cls-25,.cls-26,.cls-27,.cls-28,.cls-29,.cls-30,.cls-31,.cls-32,.cls-33,.cls-34,.cls-35,.cls-36,.cls-37,.cls-38,.cls-39,.cls-40,.cls-41,.cls-42,.cls-43,.cls-44{stroke:#fff;stroke-miterlimit:10;stroke-width:1.52px;}.cls-2{fill:#606060;}.cls-3{fill:#6f6f6f;}.cls-4{fill:#acacac;}.cls-5{fill:#a2a2a2;}.cls-6{fill:#b1b1b1;}.cls-7{fill:#a1a1a1;}.cls-8{fill:#909090;}.cls-9{fill:#626262;}.cls-10{fill:#d7d7d7;}.cls-11{fill:#434343;}.cls-12{fill:#2a2a2a;}.cls-13{fill:#343434;}.cls-14{fill:#767676;}.cls-15{fill:#5b5b5b;}.cls-16{fill:#adadad;}.cls-17{fill:#cfcfcf;}.cls-18{fill:#4b4b4b;}.cls-19{fill:#b5b5b5;}.cls-20{fill:#494949;}.cls-45{fill:#131313;}.cls-21{fill:#7f7f7f;}.cls-22{fill:#393939;}.cls-23,.cls-46{fill:#040404;}.cls-24{fill:#2e2e2e;}.cls-47{fill:#0a0a0a;}.cls-25{fill:#4f4f4f;}.cls-26{fill:#f1f1f1;}.cls-27{fill:#676767;}.cls-28{fill:#404040;}.cls-29{fill:#8a8a8a;}.cls-30{fill:#636363;}.cls-31{fill:#9d9d9d;}.cls-32{fill:#292929;}.cls-33{fill:#080808;}.cls-34{fill:#777;}.cls-35{fill:#aaa;}.cls-36{fill:#868686;}.cls-37{fill:#a0a0a0;}.cls-38{fill:#313131;}.cls-39{fill:#7a7a7a;}.cls-40{fill:#8c8c8c;}.cls-41{fill:#7e7e7e;}.cls-42{fill:#3a3a3a;}.cls-43{fill:#0d0d0d;}.cls-44{fill:#c7c7c7;}</style></defs><g id="Layer_1-2"><polygon class="cls-47" points="222.38 858.84 169.74 822.32 204.13 784.34 287.74 815.23 222.38 858.84"/><polygon class="cls-46" points="172.68 824.36 0 707.65 51.15 635.68 89.25 660.43 172.68 824.36"/><path class="cls-45" d="M138.41,733.68c3.66-1.24,7.32-2.48,10.99-3.72-99.02-6.74,14.03,1.34-98.25-94.28-52.93,147.05,38.1,81.19,38.1,95.51,5.92,1.69,11.85,3.38,17.77,5.07,10.46-.86,20.93-1.72,31.39-2.58Z"/><path class="cls-29" d="M401.58,858.56c-.16,6.66-.32,13.33-.48,19.99-2.32-14.16-6.09-28.27-6.63-42.5-.93-24.24-11.28-33.05-35.29-28.23-21.22,4.26-42.48,9.09-63.96,11.05-10.39.95-21.33-4.12-32.02-6.47,8.18,1.39,16.36,2.78,24.53,4.18,15.31-2.22,30.63-4.43,45.94-6.65-.22-1.76-.43-3.52-.65-5.27h-42.56c-4.16-3.26-8.33-6.51-12.49-9.77,2.56-.01,5.12-.03,7.68-.04,2.48,0,4.95,0,7.43,0,34,10.01,66.54,8.37,101.39-11.13,2.03.81,8.25,3.83,14.78,5.81,16.35,4.96,12.08,19.95,10.31,28.78-2.82,14.06-11.68,26.9-17.99,40.26Z"/><path class="cls-36" d="M391.59,597.71c6.86-16.85,13.74-33.69,20.59-50.55,4.51-11.12,10.43-21.92,13.15-33.47,5.96-25.37,8.43-51.69,15.95-76.52,4.93-16.27,16.19-30.62,24.62-45.83,1.47,10.23,2.94,20.46,4.55,31.6,10.04-12.89,18.52-23.79,27.01-34.69-14.5,27.44-27.11,55.05-8.17,87.64,3.86-4.65,6.55-7.87,9.38-11.27,1.73,30.57,26.95,45.45,43.61,67.29,4-25.78,7.81-51.21,4.28-75.57-2.62-18.09,1.42-31.11,13.74-44.09-1.05,9.24-2.11,18.48-3.16,27.73,1.17.18,2.33.37,3.5.55,5.29-11.69,10.57-23.38,15.86-35.07,4.95,4.95,9.9,9.9,14.84,14.85,3.19,8.22,6.37,16.43,9.56,24.65,7.33,10.06,14.66,20.12,21.99,30.18,3.99,11.78,5.16,25.87,12.54,34.87,16.06,19.57,16.18,41.37,14.99,63.97-.72,13.69,9.2,20.22,18.56,22.39,7.24,1.68,17-3.73,24.28-8.2,2.32-1.43,1.33-10.27-.01-15.21-4.42-16.21-8.91-32.49-14.83-48.19-7.38-19.56-6.7-36.27,10.98-50.24,4.67-3.69,8.81-9.08,11.09-14.56,11.54-27.85,22.38-55.98,33.47-84.02-2.37,25.35-4.75,50.69-7.12,76.01-2.12-.27-6.94-1.35-7.12-.83-2.99,8.57-5.38,17.34-7.22,23.65,17.6,4.65,32.02,8.45,46.43,12.25,3.61.66,7.45.75,10.8,2.07,14.97,5.92,20.14-3.63,24.02-14.97,3.38-9.88,3.94-19.85,9.58-30.02,8.71-15.72,9.66-35.6,15.18-53.32,1.5-4.8,7.62-8.16,11.61-12.18-.83,10.62-1.66,21.23-2.49,31.85-9.25,20.44-15.77,41.24-9.14,68.69,5.03-8.35,7.87-12.99,10.64-17.68,12.61-21.27,24.59-42.96,38.03-63.69,8.33-12.85,20.06-12.9,31.95-2.24-21.3,40.32-51.63,77.6-43.06,127.99.33,1.92-.24,4.06-.66,6.04-3.16,15.24-6.93,30.38-9.37,45.73-1.27,7.95-.22,16.27-.22,24.42,1.45.15,2.91.3,4.36.46,5.53-20.6,11.06-41.2,16.59-61.8.83-5.78,1.66-11.57,2.48-17.35,8.37-3.5,16.73-6.99,25.1-10.49,1.46,1.05,2.93,2.11,4.39,3.16-22.74,14.32-8.99,28.05-2.48,41.89-2.49,1.74-4.97,3.48-7.46,5.22-9.93,6.62-19.87,13.23-29.8,19.85,1.14,1.92,2.29,3.84,3.43,5.77,9.04-4.91,17.99-9.98,27.14-14.68,4.74-2.43,9.82-4.19,14.75-6.25-1.34,18.65-2.29,37.34-4.14,55.94-1.51,15.1-9.47,31.92-5.1,44.76,9.3,27.32,11.83,26.46-6.01,36.05,8.06,3.64,19.25,7.59,29.27,13.54,10.7,6.36,20.29,14.6,30.36,22.02,11.45,4.2,22.9,8.39,34.34,12.59-6.58.81-13.7,3.65-19.64,2.07-27.3-7.28-54.27-15.79-81.36-23.87-7.54-3.21-15.53-5.65-22.56-9.75-52.45-30.53-104.53-61.69-157.09-92-23.71-13.67-47.17-29-72.71-38.03-43.53-15.39-88.6-26.38-133.02-39.25-11.98-3.47-23.93-7.07-35.9-10.6,0,0,.31-.89.3-.88,10.5-6.08,5.76-13.19,1.88-20.82-3.42-6.73-9.98-18.19-7.83-20.38,11.07-11.25,5.8-23.62,5.23-35.54-.2-4.17-3.42-8.2-5.26-12.29-4.68,4.22-12.59,7.87-13.46,12.77-2.76,15.48-2.86,31.44-4.09,47.2-.04.54-1.09,1.01-1.81,1.63-1.6-1.99-3.16-3.94-3.59-4.47-.78,12.66-1.33,25.84-2.52,38.96-.62,6.83-2.35,13.57-3.57,20.35-3.04,6.26-6.35,12.4-8.95,18.83-.84,2.08,1.23,6.42.16,7.18-17.54,12.44-22.33,31.75-27.98,50.63.78-14.81,1.56-29.61,2.33-44.42ZM560.72,479.62c11.69,6.38,22.39,9.37,28.57,16.35,6.66,7.52,9.12,18.76,13.36,28.41,1.8,4.1,2.93,8.59,5.3,12.3,2,3.12,5.37,5.38,8.13,8.02,2.29-2.99,5.7-5.66,6.63-9.03,2.18-7.84,4.32-16.02,4.26-24.04-.04-5.88-1.93-13.56-5.94-17.23-9.14-8.36-20.08-14.75-32.01-23.15-6.17,1.83-15.63,4.63-28.3,8.38Z"/><path class="cls-10" d="M888.78,560.79c2.49-1.74,4.97-3.48,7.46-5.21,14.4-8.6,28.89-17.04,43.17-25.84,9.86-6.08,11.48-12.06-.16-18.71-14.62-8.34-15.58-14.87-5.3-28.38,2.42-3.17,5.27-6.01,6.25-7.11-9.77-20.85,7.69-33.84,10.44-49.69-1.71-1.69-3.41-3.37-5.12-5.06-4.64,5.42-9.27,10.83-13.74,16.04-2.52-5.87-6.25-15.19-10.56-24.23-1.63-3.42-4.61-6.19-6.97-9.26-2.69,2.14-5.85,3.88-7.99,6.48-26.62,32.29-32.5,71.53-37.04,111.2-.83,5.78-1.66,11.57-2.48,17.35-1.85,3.35-3.7,6.7-5.56,10.04,4.03-49.04,10.36-97.12,35.63-140.2,7-10.04,14.16-20.07.21-30.3-.8-.59-1.32-1.88-1.52-2.93-2.18-11.82-4.28-23.65-6.4-35.48,5.95,6.12,11.32,12.98,18,18.16,7.93,6.15,16.36,13.41,25.68,15.73,33.05,8.24,56.36,25.67,66.02,59.56,2.3,8.07,8.91,14.92,11.2,23,2.55,9.01,3.27,18.78,3.28,28.22.01,12.76-2.43,25.55-2,38.27.81,23.94,3.22,47.81,4.4,71.74,1.08,21.86,1.65,43.75,1.9,65.63.05,4.74-2.54,9.45-3.32,14.27-.49,3.04-.38,8.88.32,9.01,17.44,3.34,8.17,17.59,11.08,26.68.55,1.73.25,5.33-.65,5.7-20.06,8.4-4.45,17.2.28,26.14-11.3,9.97-21.61,14.91-34.47,1.99-10.6-10.66-22.69-19.86-34.33-29.46-3.54-2.92-7.78-4.98-13.07-8.29,2.02,12.2,3.65,22.08,5.28,31.96-10.07-7.42-19.66-15.66-30.36-22.02-10.01-5.95-21.21-9.89-29.27-13.54,17.84-9.6,15.31-8.74,6.01-36.05-4.37-12.84,3.59-29.66,5.1-44.76,1.85-18.6,2.8-37.29,4.14-55.94-5.17-1.56-10.35-3.13-15.52-4.7Z"/><path class="cls-39" d="M701.93,849.02c-20.5-3.25-41-6.5-61.5-9.75-6.41-.85-12.8-1.89-19.23-2.5-11.76-1.13-23.84-.83-35.17-3.62-4.17-1.03-9.78-9.46-9.29-13.9,2.48-22.22,8.1-44.14,9.87-66.38.91-11.44-3.94-23.33-6.19-35.01-1.74.2-3.49.41-5.23.61-1.3,4.99-1.86,10.35-4.09,14.89-3.35,6.82-7.86,13.07-11.88,19.57-4.58-.27-9.15-.54-15.14-.89,5.72-5.9,12.46-9.59,13.34-14.35,2.87-15.57,3.6-31.52,5.34-49.31-10.55,8.81-19.34,16.15-28.13,23.5-14.34-20.15-15.67-34.23-5.06-47.59,17.44.96,34.87,1.92,52.31,2.87-37.08-2.69-68.03-27.78-105.39-28.78-1.91-.05-3.75-2.53-5.63-3.87,5.18-2.5,11.14-8.07,15.39-6.98,17.18,4.42,34.52,9.43,50.53,16.95,24.55,11.53,49.4,18.45,76.61,14.84,3.01,2.67,5.65,6.08,9.13,7.82,3.97,1.98,8.68,2.48,13.07,3.62.41-5.08,1.8-10.33.99-15.2-1.06-6.31-3.88-12.32-5.94-18.45,3.42-.07,6.84-.14,10.27-.21,4.86,3.22,9.72,6.43,14.58,9.65,5.71,8.9,11.01,18.11,17.33,26.55,2.96,3.95,11.55,6.64,11.36,9.51-1.3,20.44,15,29.13,26.57,39.77,24.43,22.48,49.93,43.93,76.18,64.27,20.91,16.2,43.6,30.11,65.5,45.03,14.58,10.2,27.91,25.66,44.01,29.46,29.1,6.87,49.29,24.5,69.21,43.6,9.14,8.76,5.11,26.01-4.94,28.04l.23-.4c3.8-21.68-17.69-44.75-45.13-50.69-11.12-2.4-21.7-8.02-32-13.21-9.8-4.94-19.05-11.02-28.31-16.95-26.14-16.74-53.7-31.72-77.84-50.98-31.79-25.36-60.61-54.42-91.19-81.34-16.54-14.56-34.07-28-51.16-41.95l-2.88,3.16c3.64,4.19,7.1,8.54,10.95,12.53,22.72,23.57,45.61,46.97,68.28,70.58,23.24,24.2,46.29,48.58,69.43,72.88,2.73,7.34,5.46,14.67,7.65,20.53-29.13-2.65-57.95-5.27-86.77-7.89Z"/><path class="cls-1" d="M655.46,646.54c-4.86-3.22-9.72-6.43-14.58-9.65-10.48-14.36-18.26-3.08-27.38,2.27-7.23,4.24-16.48,10.48-23.33,8.98-29.73-6.5-59.6-13.71-88.03-24.35-15.25-5.71-27.69-18.88-41.4-28.69.58-4.17,1.16-8.35,1.75-12.52-3.98-12.18-7.97-24.36-11.95-36.54,3.51-2.66,7.02-5.31,10.53-7.97,0,0-.31.89-.31.89,3.58,6.17,8.34,11.98,10.39,18.63,1.74,5.66.36,12.28.36,22.83-8.58,7.84.12,14.92,10.3,20.12,10.84,5.53,22.14,11.25,33.89,13.66,20.78,4.26,40.92,33.27,63.38,3.06.22-.3.72-.63,1.05-.59,21.92,2.49,48.07-1.72,64.91,8.86,43.21,27.17,79.06,64.98,129.11,82.95,35.16,12.62,67.84,32.04,102.21,47.08,9.13,3.99,20.43,3.03,30.74,4.34.72-1.8,1.44-3.61,2.16-5.41-9.07-8.63-18.15-17.26-27.22-25.89,27.09,8.07,54.06,16.59,81.36,23.87,5.94,1.58,13.06-1.26,19.64-2.07,18.07,6.6,36.22,12.97,54.12,20,3.26,1.28,5.48,5.2,8.17,7.91-3.19,2.84-6.31,8-9.59,8.1-13.35.41-13.88,8.63-13.37,18.47,2.2,42.3-9.45,80.89-32.25,116.2-3.55,5.49-9.63,9.35-14.54,13.96,4.08-9.36,9.32-18.43,11.77-28.2,1.28-5.11-.46-14.58-4.06-16.75-28.43-17.14-54.68-35.31-77.68-60.8-22.25-24.65-53.67-41.08-81.24-60.88-37.15-26.67-74.66-52.86-111.65-79.76-17.13-12.46-33.41-26.1-50.07-39.2-2.4-.96-4.8-1.93-7.19-2.89Z"/><path class="cls-33" d="M492.19,277.8c-1.53-1.68-3.07-3.37-4.6-5.05-5.67-17.46-11.33-34.92-17.6-54.24-4.89,6.85-7.83,10.97-13.65,19.12-1.71-11.18-3.99-18.12-3.49-24.86.61-8.14,4.67-16.02,5.26-24.15.73-10.12-.16-20.42-1.08-30.58-1.16-12.83-3.06-25.6-4.64-38.39-7.83-6.15-15.66-12.3-21.08-16.55,1.22.16,6.7.88,14.53,1.91-10.68-18.21,3.49-20.09,14.61-23.85,8.86-3,17.88-5.52,26.83-8.25,12.58-.02,25.26-1.08,37.71.18,20.56,2.08,22.86.18,21.96-21.42-.22-5.24,1.72-10.57,2.67-15.86,5.14.97,10.27,1.95,16.88,3.2-2.81,6.93-5.53,11.98-6.81,17.36-.86,3.61-1.13,9.21.94,11.18,2.45,2.33,8.11,3.12,11.68,2.12,17.59-4.96,34.96-10.7,52.39-16.23,12.89-4.09,19.62-.16,19.66,14.06,0,1.88,3.86,3.75,5.94,5.62-.06,4.1-.12,8.19-.19,12.29-5.15,14.39-11.24,27.34-30.65,20.12-.49-.18-1.36.68-2.1,1.09-1.67,6.5-3.34,13.01-5.5,21.45,11.74-3.72,21.67-6.87,37.65-11.93-7.62,12.35-11.01,23.89-18.55,28.26-6.72,3.9-18.04-.12-25.87-.56-4.04-3.08-7.86-5.98-11.67-8.89-5.71-9.1-11.41-18.2-17.12-27.3-3.55-3.53-6.79-7.46-10.73-10.47-4.33-3.31-9.32-5.76-14.02-8.58.24-1.65.47-3.3.71-4.95-8.78,2.87-18.3,4.42-26.2,8.86-19.69,11.07-22.19,36.16-5.27,46.26,2.5,1.49,6.67,2.5,8.94,1.41,2.17-1.04,3.47-5,4.09-7.9,1.32-6.19,1.94-12.52,3.12-20.7-.44-.41-3.04-2.85-7.78-7.31,6.19-2.83,11.48-7.46,15.43-6.51,5.05,1.21,8.91,7.06,13.49,10.65,5.13,4.02,10.49,7.75,15.74,11.61.13,1.6.27,3.2.4,4.8,1.52,3.96,2.52,8.23,4.69,11.79,2.87,4.72,6.65,8.9,10.46,13.85-10.3,2.74-17.82,4.75-26.25,6.99-11.39-9.5-18.12-10.17-31.31-.2-8.12,6.14-16.07,13-22.45,20.86-12.79,15.75-18.38,34.77-6.91,52.27,5.26,8.03,19.48,10.21,29.64,15.05,4.89.89,9.78,1.79,14.66,2.68-2.68,2.11-5.56,6.24-8.01,6-13.79-1.37-27.48-3.8-38.84-5.51-1.9,11.56-3.33,20.32-4.77,29.07-.98.04-1.96.09-2.95.13Z"/><path class="cls-31" d="M391.59,597.71c-.78,14.81-1.56,29.61-2.33,44.42-2.02,9.16-4.5,18.26-5.83,27.52-.55,3.84,1.36,8.03,2.15,12.06,4.1-.91,8.3-1.5,12.25-2.85,2.43-.83,4.46-2.81,6.88-4.42,6.43,12.79,12.45,24.76,18.46,36.73,3.27,10.59,6.54,21.18,9.82,31.77-3.95,3.29-7.9,6.58-11.85,9.87-3.17-13.09-10.69-6.58-17.91-4.43-6.47,1.93-13.81,4.42-20.02,3.11-25.31-5.38-50.34-12.12-75.47-18.36-9.77-1.71-19.54-3.43-26.76-4.69,19.75,26.5,21.82,47.23,4.69,66.4-2.56.01-5.12.03-7.68.04-28.52-20.74-57.05-41.48-85.57-62.22-11.14-8.85-22.28-17.71-33.42-26.56,23.57-7.99,47.13-15.98,70.7-23.98-12.73-10.55-34.11-2.15-34.26-26.61-2.71,3.54-5.03,8.19-5.26,12.94-.29,5.93,1.13,11.94,1.81,17.92l-.72-.87c-11.67-27.71-6.14-42.83,23.28-41.71,21.05.8,35.8,6.97,44.97,25.76,5.88,12.05,10.56,24.89,18.02,35.86,4.02,5.91,12.4,11.35,19.44,12.26,23.36,3.04,42.01-9.34,57.41-24.59,6.66-6.6,7.83-18.87,11.13-28.68,6.48-19.26,12.52-38.66,19.19-57.85,1.16-3.34,4.53-5.92,6.88-8.84Z"/><path class="cls-37" d="M559.21,752.92c4.02-6.49,8.53-12.74,11.88-19.57,2.23-4.54,2.78-9.9,4.09-14.89,1.74-.2,3.49-.41,5.23-.61,2.25,11.69,7.1,23.58,6.19,35.01-1.76,22.24-7.39,44.16-9.87,66.38-.5,4.45,5.12,12.88,9.29,13.9,11.33,2.79,23.41,2.49,35.17,3.62,6.43.62,12.82,1.66,19.23,2.5-32.35-2.56-64.78-4.46-97.02-8.01-13.47-1.48-21.15-.42-19.45,15.76,1.7,16.2,2.72,32.51,3.06,48.79.19,8.83-1.64,17.71-2.56,26.57-9.87,5.73-19.75,11.45-29.62,17.17-1.16-.35-2.35-1.05-3.49-.98q-28.2,1.56-34.2-26.34c-4.01-18.5-8.22-36.66-30.17-43-8.76-2.53-16.95-7.06-25.4-10.67,6.31-13.36,15.17-26.2,17.99-40.26,1.77-8.83,6.05-23.82-10.31-28.78-6.53-1.98-12.75-5-14.78-5.81-34.85,19.49-67.4,21.14-101.39,11.13,1.05-1.71,2.1-3.42,3.15-5.13,32.15-1.13,64.87,2.14,95.32-12.23,12.58,3,25.15,6,35.97,8.58,1.98,9.14,3.82,17.6,6.06,27.95,3.09-3.83,4.36-5.42,4.05-5.03,6.08,2.82,10.75,4.99,15.42,7.15,1.49-3.61,2.99-7.23,4.56-11.03,2.8.54,6.53,1.27,10.27,1.99-1.61.94-3.22,1.89-4.82,2.83,2.75,6.01,5.51,12.02,9.77,21.32,4.33-10.03,6.58-15.22,9.02-20.87-1.64-1.51-3.84-3.54-8.38-7.73,13.17-1.23,20.26,1.05,26.15,11.05,3.45,5.85,11.56,8.97,17.57,13.31,1.85-5.91,3.87-11.77,5.51-17.74,1.32-4.83,2.19-9.79,3.26-14.69,7.33,7.34,10.01,15.83,14.56,23.16,2.79,4.49,8.46,7.19,12.83,10.69,2.74-4.83,7.42-9.49,7.86-14.52,1.58-18.06-9.64-31.64-27.22-35.54-2.6-.58-4.78-3.05-9.36-6.12,13.14-7.34,23.86-13.33,34.58-19.32Z"/><path class="cls-7" d="M756.49,248.1c-.54,2.45-1.07,4.9-1.61,7.35-5.62,5.32-11.24,10.65-17.04,16.14-3.52-4.01-7.45-8.5-11.39-12.98-1.65.5-3.29.99-4.94,1.49,1,10.87,1.99,21.73,2.99,32.6.32,6.27.09,12.63,1.05,18.81,3.92,25.17,9.32,50.34-3.34,74.75-3.36-1.37-7.48-1.94-9.95-4.26-7.82-7.33-13.14-4.85-19.19,2.55-10.6,12.94-21.96,25.26-33,37.83-11.29,10.06-22.98,10.29-31.39-2.25-2.3-3.43,3.43-12.23,6.53-21.87,2.07,2.52.66,1.14-.35-.49-2.46-3.96-4.73-8.03-7.07-12.06,3.92-1.65,7.79-3.44,11.78-4.9,4.86-1.78,9.82-3.28,14.74-4.91-.35-1.36-.69-2.72-1.04-4.08-9.19,1.39-18.38,2.78-27.57,4.17-2.1-5.7-3-12.32-6.53-16.93-8.06-10.51-2.23-13.84,6.95-15.44,5.55-.96,12.38,1.43,16.79-1.01,5.01-2.77,12.17-11.04,11.01-13.77-3.28-7.69-10.36-13.76-15.93-20.47-2.51,5.54-5.2,11-7.46,16.64-1.33,3.31-.92,8.31-3.2,10.05-4.28,3.26-9.95,4.7-15.05,6.9-.63-4.39-1.99-8.81-1.77-13.15.59-11.82,2.45-23.59,2.65-35.4.16-9.33,4.28-13.85,12.67-10.7,10.31,3.86,19.58,10.44,29.79,14.64,4.98,2.05,11.08,1.37,16.67,1.93-.86-3.56-.62-9.24-2.76-10.36-19.54-10.22-9.65-17.05,1.37-26.27,19.72-16.5,19.34-18.66,3.38-32.28.19-3.7.33-6.59.47-9.48,5.54-10.38,11.08-20.75,14.6-27.35,10.96,17.16,22.97,35.96,35.89,56.18,7.57-11.73,13.01-16.11,16.8-.33,2.9-4.82,5.1-8.47,5.23-8.69,3.14,2.53,6.16,4.96,9.19,7.4Z"/><path class="cls-12" d="M532.09,245.43c-10.16-4.83-24.37-7.01-29.64-15.05-11.46-17.5-5.87-36.52,6.91-52.27,6.38-7.86,14.33-14.72,22.45-20.86,13.18-9.97,19.92-9.3,31.31.2,8.43-2.24,15.95-4.25,26.25-6.99-3.81-4.95-7.59-9.12-10.46-13.85-2.17-3.56-3.17-7.84-4.69-11.79,6.66,5.32,13.31,10.64,20.3,16.22-.33-1.82-.71-3.95-1.09-6.08,3.81,2.9,7.63,5.81,11.67,8.89,7.82.44,19.14,4.46,25.87.56,7.54-4.38,10.93-15.91,18.55-28.26-15.98,5.06-25.91,8.21-37.65,11.93,2.17-8.44,3.84-14.95,5.5-21.45.74-.4,1.62-1.27,2.1-1.09,19.41,7.22,25.49-5.73,30.65-20.12,2.37.85,4.74,1.7,7.11,2.55,2.39-8.79,4.78-17.59,7.17-26.38-1.38-.48-2.76-.95-4.14-1.43-3.32,4.32-6.64,8.64-9.96,12.97-2.07-1.87-5.93-3.74-5.94-5.62-.04-14.23-6.77-18.16-19.66-14.06-17.43,5.53-34.8,11.27-52.39,16.23-3.57,1.01-9.23.21-11.68-2.12-2.07-1.97-1.8-7.57-.94-11.18,1.28-5.39,4-10.43,6.81-17.36-6.61-1.25-11.75-2.23-16.88-3.2-.95,5.29-2.89,10.62-2.67,15.86.91,21.61-1.39,23.5-21.96,21.42-12.45-1.26-25.13-.2-37.71-.18,14.09-26.08,39.03-37.88,64.51-48.97,5.36,1.34,10.72,2.68,16.5,4.12,11.46-20.18,31.46-16.82,49.67-18.47,3.38.74,6.76,1.49,10.15,2.23,2.4,2.98,4.74,8.47,7.22,8.54,16.83.44,9.17,8.9,8.12,13.02,8.59,5.17,18.77,9.59,23.94,17.35,7.89,11.84,12.3,25.98,18.18,39.15-.47.39-.94.79-1.39,1.19-2.43,1.57-4.86,3.14-6.49,4.19h-13.07c1.65,8.51,3.3,17.02,4.95,25.53,1.84-.06,3.69-.11,5.53-.17,2.62-4.31,5.25-8.62,7.87-12.94.78,0,1.57-.02,2.35-.03-2.93,6.67-5.86,13.34-9.04,20.56,2.58.88,5.24,1.8,7.94,2.73-1.07,4.04-1.89,7.12-2.89,10.85,2.51-.73,4.24-1.24,7.38-2.15-1.59,4-2.81,7.08-4.9,12.34-8.03-7.6-14.54-13.77-21.05-19.93-1.17.91-2.34,1.82-3.51,2.73,5.22,7.55,10.34,15.16,15.69,22.62,7.71,10.75,7.68,18.69-7.38,21.59-23.56-19.66-52.16-16.48-79.7-16.72-5.51-.05-10.97,5.87-16.67,8.58-1.99.95-4.62.54-6.96.75-5.16-3.09-10.42-8.97-15.45-8.77-19.17.75-43.67,35.24-42.56,54.77,1.01,17.68,16.11,19.71,25.88,27.84Z"/><path class="cls-20" d="M532.09,245.43c-9.77-8.13-24.87-10.16-25.88-27.84-1.11-19.53,23.4-54.02,42.56-54.77,5.03-.2,10.29,5.68,15.45,8.77-28.57,1.8-37.27,18.15-26.65,44.11,9.39,22.95,29.49,34.23,46.1,49.53,1.66,11.5,3.32,22.99,4.97,34.49.06,1.62.11,3.24.17,4.86-.54,9.74-1.03,19.48-1.65,29.21-.73,11.4,5.08,17.7,13.75,14.76.88-3.12,1.76-6.25,2.64-9.37v-.02c3.62,9.06,6.6,18.45,11.14,27.03,2.15,4.07,7.26,6.58,11.03,9.8,9.19-1.39,18.38-2.78,27.57-4.17.35,1.36.69,2.72,1.04,4.08-4.92,1.62-9.88,3.13-14.74,4.91-3.99,1.46-7.86,3.25-11.78,4.9,2.35,4.03,4.62,8.1,7.07,12.06,1.01,1.63,2.42,3.01.35.49-3.11,9.64-8.83,18.43-6.53,21.87,8.4,12.55,20.1,12.32,31.39,2.26,12.67,11.51,25.81,11.22,37.63-.4,8.87-8.72,16.12-19.08,24.09-28.7-2.7,20.65-19.25,31.1-32.6,43.77-11.68,11.08-24.72,11.74-39.58,5.54-11.69-4.87-24.36-7.53-36.77-10.4-2.75-.64-6.25,1.95-9.4,3.06-4.04-4.98-8.07-9.95-12.11-14.93-4.95-4.95-9.9-9.9-14.84-14.85-14.72-19.67-29.44-39.34-44.15-59.01-4.19-9.03-8.39-18.05-12.58-27.08.28-.38.57-.76.85-1.14,6.69-1.68,14.18-2,19.91-5.34,11.97-6.95,23.31-15.11,34.22-23.64,2.72-2.13,4.88-8.25,3.82-11.37-5.19-15.31-13.26-28.36-31.8-29.78-4.89-.89-9.78-1.79-14.66-2.68Z"/><path class="cls-10" d="M758.91,487.02c-14.41-3.8-28.82-7.61-46.43-12.25,1.83-6.31,4.23-15.08,7.22-23.65.18-.53,5,.56,7.12.83,2.37-25.32,4.75-50.66,7.12-76.01-.06-18.82-.12-37.63-.18-56.45-2.97-15.67,13.7-15.91,19.45-24.73,29.4,11.31,58.67,22.99,88.28,33.75,10.62,3.86,22.05,5.5,33.11,8.15,1.22,5.71,2.45,11.42,3.94,18.41h-21.03c-.22,5.05.67,9.04-.71,11.96-7.19,15.29-14.92,30.32-22.78,45.28-.21.39-4.19-1.2-6.41-1.86.83-10.62,1.66-21.23,2.49-31.85,5.75-19.52-9.61-33.16-14.42-49.72-.52-1.79-10.88-3.17-11.41-2.11-2.84,5.67-5.29,12.15-5.46,18.41-.23,8.65,1.68,17.36,2.66,25.9-5.92-5.15-10.1-8.8-14.29-12.44l2.48-.33c-5.39-12.01-10.78-24.01-16.17-36.02-4.02,3.13-4.44,5.04-4.39,6.93.61,25.66,4.67,51.81,1.01,76.84-3.94,26.94-.23,55.06-11.23,80.96Z"/><path class="cls-40" d="M662.65,649.43c16.66,13.1,32.94,26.74,50.07,39.2,36.99,26.9,74.5,53.08,111.65,79.76,27.57,19.79,58.99,36.23,81.24,60.88,23,25.49,49.25,43.66,77.68,60.8,3.6,2.17,5.34,11.63,4.06,16.75-2.45,9.77-7.69,18.84-11.77,28.2-4.97-.75-9.94-1.49-14.91-2.24,10.05-2.03,14.08-19.28,4.94-28.04-19.92-19.1-40.11-36.72-69.21-43.6-16.09-3.8-29.43-19.26-44.01-29.46-10.91-8.44-22.11-16.53-32.65-25.41-12.07-10.17-23.83-20.75-35.21-31.69-10.04-9.64-15.47-25.05-33.75-23.78-3.63.25-10.38-4.67-11.05-8.11-4.42-22.61-23.31-33.94-36.88-49.32-13.13-14.88-26.78-29.3-40.2-43.93Z"/><path class="cls-34" d="M532.33,346.45c14.72,19.67,29.44,39.34,44.15,59.01-5.29,11.69-10.57,23.38-15.86,35.06-1.17-.18-2.33-.37-3.5-.55,1.05-9.24,2.11-18.48,3.16-27.73-12.32,12.98-16.36,26-13.74,44.09,3.53,24.36-.28,49.79-4.28,75.57-16.66-21.85-41.89-36.72-43.61-67.29-2.83,3.4-5.51,6.63-9.38,11.27-18.94-32.6-6.33-60.21,8.18-87.64,5.75-7.41,11.5-14.82,17.26-22.22,5.87-6.52,11.75-13.05,17.62-19.57Z"/><path class="cls-25" d="M781.05,836.39c-23.14-24.3-46.19-48.68-69.43-72.88-22.67-23.61-45.56-47.01-68.28-70.58-3.85-3.99-7.31-8.35-10.95-12.53l2.88-3.16c17.08,13.95,34.62,27.38,51.16,41.95,30.58,26.93,59.4,55.98,91.19,81.34,24.14,19.26,51.71,34.24,77.84,50.98,9.26,5.93,18.51,12.02,28.31,16.95,10.3,5.19,20.89,10.81,32,13.21,27.44,5.94,48.93,29,45.13,50.69-34.65-16.18-69.29-32.35-103.94-48.53-25.3-15.82-50.61-31.64-75.91-47.45Z"/><path class="cls-13" d="M158.99,706.09c11.14,8.85,22.28,17.71,33.43,26.56-10.27-4.73-21.27-8.34-30.66-14.44-19.65-12.75-38.46-26.81-59.75-41.84v70.94c17.12-3.81,34.05-7.58,50.98-11.35,2.11,11.1,1.7,23.78,16.81,26.71-12.22,3.51-24.44,7.01-36.66,10.52.48,2.13.96,4.26,1.44,6.39,16.63-3.2,33.26-6.4,49.89-9.6,3.97,2.26,8.61,7.14,11.78,6.32,11.04-2.84,16.87,1.33,20.39,11.06-15.25,5.54-30.5,11.08-45.75,16.62.3,1.2.6,2.39.9,3.59,14.89-2.68,29.78-5.36,44.67-8.04,3.32,9.01,6.64,18.02,9.96,27.03-16.93-.55-33.86-.88-50.77-1.74-12.09-.62-25.67,4.16-34.61-9.14-3.53-5.25-9.9-9.48-11.31-15.09-3.18-12.59-11.19-15.35-22.42-16.37-3.35-.31-8.87-5.82-8.91-9-.43-35.25.03-70.5.24-105.76,4.37,2.01,8.8,3.92,13.11,6.05,13.78,6.79,27.53,13.66,39.03,19.38.73-.9-1.39,1.72-3.51,4.35,3.91,2.29,7.82,4.58,11.73,6.87Z"/><path class="cls-9" d="M667.56,178.97c15.07-2.89,15.09-10.83,7.38-21.59-5.35-7.46-10.47-15.07-15.69-22.62,1.17-.91,2.34-1.82,3.51-2.73,6.51,6.17,13.02,12.33,21.05,19.93,2.09-5.26,3.31-8.34,4.9-12.34-3.14.92-4.87,1.42-7.38,2.15.99-3.74,1.81-6.81,2.89-10.85-2.7-.93-5.36-1.84-7.94-2.73,3.18-7.23,6.11-13.89,9.03-20.56,26.44-3.24,34.69,17.19,46.04,34.79-2.97,1.79-5.2,3.86-7.8,4.58-12.97,3.59-13.48,10.48-8.59,22.02,4.8,11.31,6.09,24.05,9.67,35.94,1.19,3.96,4.69,7.22,7.13,10.8,4.32-3.64,11.06-6.52,12.48-11.06,3.59-11.46,4.78-23.67,6.94-35.58,3.07,12.21,6.14,24.43,9.4,37.43.2.07,3.21,1.16,6.22,2.25-6.87,12.2,5.57,29.45-10.32,39.28-3.03-2.44-6.05-4.87-9.19-7.4-.13.22-2.33,3.87-5.23,8.69-3.79-15.78-9.23-11.4-16.8.33-12.92-20.22-24.93-39.02-35.89-56.18-3.52,6.6-9.06,16.97-14.6,27.35-5.85,3.18-11.69,6.37-17.54,9.55-5.63-1.59-11.26-3.19-16.89-4.78,6.94-1.78,13.79-4.36,20.84-5.18,11.86-1.38,24.5-18.53,23.54-33.21-1-15.42-11.54-4.14-17.33-6.17.05-.71.1-1.42.16-2.12Z"/><path class="cls-23" d="M184.46,769.98c-16.63,3.2-33.26,6.4-49.89,9.6-.48-2.13-.96-4.26-1.44-6.39,12.22-3.51,24.44-7.01,36.66-10.52,1.39-6.14,5.9-15.28,3.49-17.78-4.74-4.92-13.31-6.16-20.3-8.93-16.93,3.77-33.86,7.54-50.98,11.35v-70.94c21.29,15.03,40.1,29.09,59.75,41.84,9.39,6.09,20.39,9.7,30.66,14.44,28.52,20.74,57.05,41.48,85.57,62.22,4.16,3.26,8.33,6.51,12.49,9.77,7.51,5.9,3.37,9.14-2.74,11.92-8.18-1.39-16.36-2.78-24.53-4.17-2.38-.93-4.76-1.87-7.14-2.8.38-3.36,1.3-6.76,1.03-10.06-.43-5.19,0-12.14-3.05-14.94-2.9-2.66-10.73-2.79-14.77-.77-8.19,4.08-15.28,10.35-22.82,15.72-14.89,2.68-29.78,5.36-44.67,8.04-.3-1.2-.6-2.39-.9-3.59,15.25-5.54,30.5-11.08,45.75-16.62,2.89-6.53,9.15-13.79,7.93-19.43-2.18-10.06-11.14-9.42-19.7-5.48-6.56,3.02-13.58,5.06-20.4,7.54Z"/><path class="cls-27" d="M401.58,858.56c8.45,3.62,16.64,8.14,25.4,10.67,21.94,6.33,26.15,24.5,30.17,43q6.06,27.91,34.2,26.34c1.14-.06,2.33.64,3.49.98-17.86,4.28-35.72,8.56-55.93,13.4,4.23,2.88,6.9,4.7,9.57,6.51-1.98,2.29-3.69,6.17-6,6.56-7.09,1.2-14.41,1.06-21.64,1.44-14.54-4.79-10.93-17.02-11.28-27.59-.28-8.28.43-16.68-.8-24.8-1.87-12.28-5.04-24.37-7.66-36.54.16-6.66.32-13.33.48-19.99Z"/><path class="cls-28" d="M452.4,119.65c1.58,12.8,3.48,25.56,4.64,38.39.92,10.16,1.81,20.46,1.08,30.58-.59,8.13-4.65,16.01-5.26,24.15-.5,6.74,1.78,13.69,3.49,24.86,5.81-8.14,8.75-12.26,13.65-19.12,6.27,19.31,11.93,36.78,17.6,54.24-2.82-2.18-5.64-4.36-9.16-7.09-1.98,2.11-4.82,5.13-5.08,5.4-5.39-2.76-9.64-4.92-14.64-7.47-.48,1.53.12-.38,1.23-3.87-6.62,3.86-11.77,6.87-17.85,10.42,2.07,3.48,3.68,6.2,7.96,13.4-6.81-4.68-9.54-6.57-12.28-8.45,3.84-5.32,8.08-10.4,11.35-16.04,1.95-3.36,4.26-8.52,2.96-11.18-1.19-2.42-6.99-2.85-10.86-3.57-1.88-.35-4.01.63-6.03,1.01,1.29-2.54,4.33-6.53,3.6-7.41-7.41-8.94-3.71-20.45-6.05-28.31-4.34-14.53-1.21-22.51,8.64-31.55-8-4.14-14.6-7.55-18.81-9.72,1.9-6.53,4.59-13.16,5.69-20.03,2.33-14.62,8.4-25.54,24.12-28.64Z"/><path class="cls-6" d="M827.62,410.44c2.22.66,6.2,2.26,6.41,1.86,7.87-14.95,15.59-29.99,22.78-45.28,1.38-2.92.48-6.91.71-11.96h21.03c-1.5-6.99-2.72-12.7-3.94-18.41,4.84.94,9.67,1.88,14.51,2.82,2.12,11.83,4.21,23.67,6.4,35.48.19,1.05.71,2.34,1.52,2.93,13.96,10.23,6.8,20.26-.21,30.3.76-4.23,1.52-8.45,2.28-12.68-11.88-10.66-23.62-10.6-31.95,2.24-13.44,20.74-25.42,42.42-38.03,63.69-2.78,4.68-5.61,9.33-10.64,17.68-6.63-27.46-.1-48.26,9.14-68.69Z"/><path class="cls-9" d="M685.58,89.86c-5.89-13.16-10.3-27.31-18.19-39.14-5.17-7.76-15.36-12.18-23.94-17.35,1.05-4.12,8.71-12.57-8.12-13.02-2.48-.07-4.82-5.56-7.22-8.54,14.21,5.36,28.98,9.62,42.49,16.38,13.34,6.67,25.57,15.65,37.96,24.09,4.19,2.86,7.4,7.16,11.06,10.8.3,26.74,13.33,45.36,35.12,49.38-3.61,7.5-7.14,14.83-10.66,22.16-.99-.71-2.41-1.2-2.91-2.16-11.49-22.09-26.17-39.94-53.72-41.08-.64-.03-1.24-.99-1.86-1.52Z"/><path class="cls-19" d="M744.07,134.63c3.53-7.33,7.05-14.66,10.66-22.16-21.79-4.02-34.81-22.64-35.12-49.38,18.18,1.3,17.65,18.62,25.09,29.15,3.77,5.33,7.04,12.15,12.32,15.06,14.86,8.18,19.48,26.46,6.66,37.52,19.54,15,14,31-.56,45.75,4.7,2.09,7.56,3.36,10.42,4.63-2.25,4.53-4.49,9.07-6.74,13.6-3.01-1.09-6.02-2.18-6.22-2.25-3.27-13-6.33-25.21-9.4-37.43-.05-2.41-.11-4.82-.16-7.23,1.61-4.42,3.23-8.84,4.84-13.26-1.36.26-2.72.51-4.08.77-2.58-4.93-5.16-9.86-7.73-14.8h.01Z"/><path class="cls-37" d="M420.84,967.48c7.23-.38,14.55-.24,21.64-1.44,2.3-.39,4.02-4.28,6-6.56,11.49-1.56,23.71-1.18,34.28-5.16,14.62-5.51,28-14.3,41.91-21.69-3.88,10.59-5.62,22.98-12.45,31.08-3.98,4.73-16.1,3.25-24.58,3.42-22.26.45-44.53.28-66.8.36Z"/><path class="cls-2" d="M216.45,799.52c7.54-5.37,14.63-11.64,22.82-15.72,4.04-2.01,11.87-1.89,14.77.77,3.06,2.8,2.62,9.75,3.05,14.94.28,3.3-.64,6.71-1.03,10.06-9.88,5.65-19.76,11.31-29.64,16.96-3.32-9.01-6.64-18.02-9.96-27.03Z"/><path class="cls-41" d="M753.21,294.76c-5.75,8.82-22.43,9.06-19.45,24.73-3.08-8.94-6.17-17.87-9.25-26.81-1-10.87-1.99-21.73-2.99-32.6,1.65-.5,3.29-.99,4.94-1.49,3.93,4.49,7.87,8.97,11.39,12.98,5.8-5.5,11.42-10.82,17.04-16.14-5.35,12.9-10.23,25.83-1.67,39.32Z"/><path class="cls-5" d="M781.05,836.39c25.3,15.82,50.61,31.64,75.91,47.45-51.68-11.61-103.36-23.21-155.04-34.82,28.82,2.62,57.64,5.24,86.77,7.89-2.18-5.86-4.91-13.19-7.65-20.53Z"/><path class="cls-7" d="M514.71,366.02c-5.75,7.41-11.5,14.82-17.26,22.22-8.49,10.9-16.97,21.8-27.01,34.69-1.6-11.14-3.08-21.37-4.55-31.6,16.27-8.44,32.54-16.87,48.81-25.31Z"/><path class="cls-26" d="M524.66,932.62c-13.91,7.39-27.29,16.18-41.91,21.69-10.57,3.98-22.79,3.6-34.28,5.16-2.67-1.82-5.34-3.64-9.57-6.51,20.21-4.84,38.07-9.12,55.93-13.4,9.87-5.72,19.75-11.45,29.62-17.17.07,3.41.13,6.82.2,10.23Z"/><path class="cls-4" d="M617.96,9.59c-18.21,1.65-38.21-1.7-49.67,18.47-5.78-1.44-11.14-2.78-16.5-4.12,2.33-4.23,3.95-9.12,7.15-12.51,4.14-4.39,9.9-11.08,14.36-10.64,15.03,1.47,29.79,5.66,44.65,8.81Z"/><path class="cls-31" d="M147.26,699.23c2.12-2.63,4.24-5.25,3.51-4.35-11.5-5.72-25.24-12.59-39.03-19.38-4.32-2.13-8.74-4.04-13.11-6.05,4.39-.84,9.71-3.66,12.99-2.13,8.33,3.89,15.16,11.6,23.69,14.31,10.82,3.43,22.71,3.89,34.2,4.75,7.19.54,14.5-.53,21.76-.88,0,0,.72.87.72.87-14.91,4.29-29.82,8.57-44.73,12.86Z"/><path class="cls-17" d="M435.21,245.31c2.02-.38,4.15-1.37,6.03-1.01,3.87.72,9.67,1.15,10.86,3.57,1.31,2.66-1.01,7.82-2.96,11.18-3.28,5.64-7.52,10.73-11.35,16.04-6.57-9.93-13.15-19.85-19.72-29.78h17.14Z"/><path class="cls-20" d="M492.19,277.8c.98-.04,1.96-.09,2.95-.13,9.86,4.89,19.72,9.78,29.58,14.68l-.11-.08c-1.34,8.66-2.67,17.31-4.01,25.97-.28.38-.57.76-.85,1.14-3.27-6.54-5.78-13.62-10.01-19.45-3.96-5.46-9.98-9.38-14.59-14.44-1.72-1.89-2.01-5.08-2.96-7.68Z"/><path class="cls-44" d="M882.03,728.58c9.07,8.63,18.15,17.26,27.22,25.89-.72,1.8-1.44,3.61-2.16,5.41-10.3-1.31-21.61-.34-30.74-4.34-34.37-15.04-67.05-34.46-102.21-47.08-50.05-17.96-85.91-55.77-129.11-82.95-16.84-10.59-42.99-6.37-64.91-8.86-.33-.04-.82.29-1.05.59-22.47,30.21-42.61,1.2-63.38-3.06-11.76-2.41-23.06-8.12-33.89-13.66-10.18-5.2-18.88-12.28-10.3-20.12,0-10.54,1.38-17.16-.36-22.83-2.05-6.65-6.81-12.46-10.39-18.63,11.97,3.54,23.92,7.13,35.9,10.61,44.42,12.87,89.5,23.87,133.02,39.25,25.54,9.03,49,24.35,72.71,38.03,52.57,30.31,104.65,61.47,157.09,92,7.03,4.09,15.02,6.54,22.56,9.75Z"/><path class="cls-42" d="M724.5,292.69c3.08,8.94,6.17,17.87,9.25,26.81.06,18.82.12,37.63.18,56.45-11.09,28.03-21.93,56.17-33.47,84.02-2.27,5.48-6.42,10.88-11.09,14.56-17.68,13.97-18.36,30.68-10.98,50.24,5.92,15.7,10.42,31.97,14.83,48.19,1.35,4.94,2.33,13.79.01,15.21-7.27,4.48-17.04,9.88-24.28,8.2-9.36-2.17-19.28-8.7-18.56-22.39,1.19-22.6,1.07-44.41-14.99-63.97-7.38-9-8.55-23.09-12.54-34.87-6.41-11.71-12.82-23.41-19.23-35.11-.07-1.59-.14-3.19-.21-4.78,3.15-1.1,6.65-3.69,9.4-3.06,12.41,2.87,25.09,5.53,36.77,10.4,14.86,6.2,27.9,5.54,39.58-5.54,13.35-12.67,29.9-23.12,32.6-43.77.14-2.34.28-4.69.42-7.03,12.66-24.41,7.26-49.57,3.34-74.75-.96-6.17-.73-12.53-1.05-18.81Z"/><path class="cls-30" d="M423.16,711.17c-6.02-11.97-12.03-23.94-18.46-36.73-2.42,1.61-4.45,3.59-6.88,4.42-3.95,1.35-8.15,1.94-12.25,2.85-.79-4.03-2.7-8.22-2.15-12.06,1.33-9.26,3.81-18.36,5.83-27.52,5.65-18.88,10.43-38.19,27.98-50.63,1.07-.76-1-5.09-.16-7.18,2.6-6.43,5.91-12.58,8.95-18.83,3.67-1.18,7.32-2.45,11.02-3.52,4.52-1.3,9.08-2.44,13.63-3.65,3.93,8.09,7.86,16.17,11.79,24.26-.58,4.17-1.16,8.35-1.75,12.52-.04,3.33-.09,6.65-.13,9.98-1.9,9.59-.59,22.29-6.3,28.2-16.52,17.07-18.25,34.91,1.95,47.5,10.92,6.81,25.84,7.22,38.96,10.52-.05,2.46-.1,4.91-.15,7.37-9.94.57-23.56-10.5-27.74,8.83-6.33-3.1-12.7-6.22-19.11-9.35-3.83,8.65-7.08,16-10.34,23.36-4.9-3.45-9.81-6.89-14.71-10.34Z"/><path class="cls-35" d="M869.22,521.01c4.54-39.67,10.42-78.91,37.04-111.2,2.14-2.59,5.3-4.34,7.99-6.48,2.36,3.07,5.35,5.84,6.97,9.26,4.31,9.04,8.04,18.36,10.56,24.23,4.46-5.21,9.1-10.63,13.74-16.04,1.71,1.69,3.41,3.37,5.12,5.06-2.76,15.85-20.21,28.84-10.44,49.69-.98,1.1-3.83,3.94-6.25,7.11-10.28,13.51-9.32,20.04,5.3,28.38,11.64,6.64,10.02,12.63.16,18.71-14.27,8.8-28.76,17.25-43.17,25.84-6.52-13.84-20.27-27.57,2.47-41.89-1.46-1.05-2.93-2.11-4.39-3.16-8.37,3.5-16.73,6.99-25.1,10.49Z"/><path class="cls-6" d="M758.91,487.02c11-25.9,7.29-54.02,11.23-80.96,3.66-25.03-.41-51.18-1.01-76.84-.04-1.89.37-3.79,4.39-6.93,5.39,12.01,10.78,24.01,16.17,36.02l-2.48.33c4.18,3.64,8.37,7.29,14.29,12.44-.98-8.54-2.89-17.25-2.66-25.9.17-6.26,2.61-12.74,5.46-18.41.53-1.06,10.89.31,11.41,2.11,4.82,16.56,20.17,30.2,14.42,49.72-4,4.02-10.12,7.38-11.61,12.18-5.53,17.72-6.48,37.59-15.18,53.32-5.64,10.18-6.2,20.15-9.58,30.02-3.88,11.34-9.06,20.89-24.02,14.97-3.35-1.32-7.19-1.41-10.8-2.07Z"/><path class="cls-34" d="M450.68,558.32c-4.55,1.21-9.11,2.34-13.63,3.65-3.7,1.07-7.35,2.34-11.02,3.52,1.23-6.78,2.95-13.51,3.57-20.35,1.18-13.12,1.73-26.3,2.52-38.96.43.53,1.99,2.48,3.59,4.47.72-.62,1.76-1.09,1.81-1.63,1.23-15.76,1.33-31.72,4.09-47.2.87-4.9,8.77-8.55,13.46-12.77,1.84,4.09,5.06,8.12,5.26,12.29.57,11.92,5.84,24.29-5.23,35.54-2.15,2.18,4.41,13.64,7.83,20.38,3.88,7.63,8.62,14.74-1.88,20.82-3.5,2.65-7.01,5.31-10.52,7.96.05,4.09.1,8.19.16,12.28Z"/><path class="cls-34" d="M560.72,479.62c12.67-3.75,22.13-6.55,28.3-8.38,11.93,8.4,22.87,14.79,32.01,23.15,4.01,3.67,5.89,11.35,5.94,17.23.06,8.02-2.08,16.2-4.26,24.04-.94,3.36-4.35,6.04-6.63,9.03-2.76-2.64-6.13-4.89-8.13-8.02-2.38-3.71-3.5-8.2-5.3-12.3-4.23-9.65-6.7-20.89-13.36-28.41-6.18-6.98-16.88-9.97-28.57-16.35Z"/><path class="cls-35" d="M899.09,395.52c-.76,4.23-1.52,8.45-2.28,12.68-25.27,43.08-31.6,91.16-35.63,140.2,1.85-3.35,3.71-6.7,5.56-10.04-5.53,20.6-11.06,41.2-16.59,61.8-1.45-.15-2.91-.3-4.36-.46,0-8.15-1.04-16.47.22-24.42,2.44-15.35,6.21-30.49,9.37-45.73.41-1.98.98-4.11.66-6.04-8.57-50.39,21.76-87.67,43.06-127.99Z"/><path class="cls-35" d="M888.78,560.79c5.17,1.57,10.35,3.13,15.52,4.7-4.93,2.06-10.01,3.82-14.75,6.25-9.15,4.69-18.1,9.76-27.14,14.68-1.14-1.92-2.29-3.84-3.43-5.77,9.93-6.62,19.87-13.23,29.8-19.85Z"/><path class="cls-20" d="M603.65,440.02c6.41,11.7,12.82,23.41,19.23,35.11-7.33-10.06-14.66-20.12-21.99-30.17.92-1.65,1.84-3.29,2.76-4.94Z"/><path class="cls-34" d="M603.65,440.02c-.92,1.65-1.84,3.29-2.76,4.94-3.19-8.22-6.38-16.43-9.56-24.65,4.04,4.98,8.08,9.95,12.11,14.93.07,1.59.14,3.19.21,4.78Z"/><path class="cls-29" d="M495.05,698.67c.05-2.46.1-4.91.15-7.37.55-2.33,2.07-4.95,1.49-6.96-2.63-9.16-5.84-18.15-8.85-27.21,13.9,2.38,27.81,4.77,41.71,7.15-10.6,13.36-9.27,27.44,5.06,47.58,8.79-7.35,17.58-14.69,28.13-23.5-1.75,17.78-2.48,33.74-5.34,49.31-.88,4.77-7.62,8.45-13.34,14.35,5.99.35,10.57.62,15.14.89-10.72,5.99-21.44,11.98-34.58,19.32,4.58,3.07,6.76,5.54,9.36,6.12,17.58,3.9,28.8,17.48,27.22,35.54-.44,5.03-5.12,9.69-7.86,14.52-4.38-3.5-10.04-6.2-12.83-10.69-4.55-7.33-7.23-15.82-14.56-23.16-1.07,4.9-1.94,9.86-3.26,14.69-1.64,5.97-3.65,11.83-5.51,17.74-6.01-4.35-14.12-7.46-17.57-13.31-5.89-10-12.97-12.28-26.15-11.05,4.54,4.18,6.74,6.22,8.38,7.73-2.44,5.65-4.68,10.84-9.02,20.87-4.26-9.3-7.02-15.31-9.77-21.32,1.61-.94,3.22-1.89,4.82-2.83-3.73-.72-7.47-1.45-10.27-1.99-1.57,3.81-3.07,7.42-4.56,11.03-4.67-2.17-9.34-4.33-15.42-7.15.32-.39-.96,1.2-4.05,5.03-2.25-10.35-4.08-18.81-6.06-27.95-10.81-2.58-23.39-5.58-35.97-8.58-3.26-5.75-6.53-11.5-11.41-20.09,9.05,3.5,13.76,6.16,18.79,7.1,10.12,1.89,22.15,6.1,22.17-11.67,3.95-3.29,7.9-6.58,11.85-9.87,4.8,8.11,9.6,16.22,14.4,24.32,16.94-7.75,38.93-.57,52.28-19.81-3.89.76-7.78,1.52-11.67,2.29-.61-1.08-1.22-2.15-1.83-3.23,5.24-3.3,10.49-6.6,17.7-11.15.17-.74.97-4.35,1.94-8.69,4.53,2.25,7.94,3.95,11.78,5.87-3.56-8.16-6.03-15.97-10.24-22.7-2.83-4.52-8.1-7.51-12.29-11.18Z"/><path class="cls-36" d="M662.65,649.43c13.42,14.62,27.07,29.05,40.2,43.93,13.58,15.38,32.47,26.71,36.88,49.32.67,3.44,7.42,8.36,11.05,8.11,18.28-1.27,23.71,14.14,33.75,23.78,11.38,10.93,23.14,21.52,35.21,31.69,10.54,8.88,21.74,16.97,32.65,25.41-21.9-14.93-44.58-28.84-65.5-45.03-26.25-20.33-51.75-41.79-76.18-64.27-11.57-10.64-27.87-19.33-26.57-39.77.18-2.87-8.41-5.56-11.36-9.51-6.32-8.44-11.62-17.65-17.33-26.55,2.4.96,4.8,1.92,7.2,2.89Z"/><path class="cls-40" d="M460.59,605.08c.04-3.32.09-6.65.13-9.98,13.71,9.81,26.16,22.99,41.41,28.69,28.43,10.64,58.3,17.85,88.03,24.35,6.85,1.5,16.11-4.74,23.33-8.98,9.12-5.36,16.91-16.63,27.38-2.27-3.42.07-6.84.14-10.26.21-5.75,7.41-11.5,14.81-17.25,22.22-27.21,3.61-52.06-3.31-76.61-14.84-16-7.52-33.35-12.53-50.53-16.95-4.25-1.09-10.22,4.47-15.39,6.98-.94-.89-1.87-1.78-2.8-2.67-2.48-8.92-4.96-17.84-7.44-26.76Z"/><path class="cls-11" d="M468.03,631.83c.93.89,1.87,1.78,2.8,2.67,1.88,1.35,3.72,3.82,5.63,3.87,37.36,1,68.31,26.09,105.39,28.78-17.44-.96-34.87-1.92-52.31-2.87-13.9-2.38-27.81-4.77-41.71-7.15-6.34,1.27-12.7,3.48-19.02,3.38-2.69-.04-7.84-5.3-7.49-7.49,1.16-7.23,4.31-14.15,6.7-21.18Z"/><path class="cls-36" d="M613.36,659.31c5.75-7.41,11.5-14.81,17.25-22.22,2.06,6.14,4.88,12.15,5.94,18.45.82,4.88-.58,10.12-.99,15.2-4.39-1.14-9.1-1.64-13.07-3.62-3.48-1.74-6.12-5.15-9.13-7.82Z"/><path class="cls-36" d="M450.68,558.32c-.05-4.09-.1-8.19-.16-12.28,3.98,12.18,7.97,24.36,11.95,36.54-3.93-8.09-7.86-16.17-11.79-24.26Z"/><path class="cls-32" d="M524.72,292.34c-9.86-4.89-19.72-9.79-29.58-14.68,1.44-8.75,2.87-17.51,4.77-29.07,11.36,1.71,25.05,4.14,38.84,5.51,2.45.24,5.33-3.89,8.01-6,18.54,1.42,26.61,14.48,31.8,29.78,1.06,3.11-1.1,9.24-3.82,11.37-10.92,8.53-22.26,16.69-34.22,23.64-5.74,3.33-13.22,3.65-19.91,5.34,1.34-8.66,2.68-17.31,4.01-25.97,2.59-2.43,5.17-4.86,7.76-7.29-4.17-3.31-8.35-6.61-12.52-9.92-1.1,1.12-2.2,2.24-3.3,3.35,2.72,4.64,5.45,9.28,8.17,13.93Z"/><path class="cls-24" d="M573.82,120.03c-5.26-3.86-10.61-7.59-15.74-11.61-4.58-3.59-8.44-9.44-13.49-10.65-3.95-.95-9.24,3.68-15.43,6.51,4.74,4.46,7.35,6.9,7.78,7.31-1.18,8.18-1.81,14.52-3.12,20.7-.62,2.9-1.92,6.86-4.09,7.9-2.28,1.09-6.44.09-8.94-1.41-16.92-10.11-14.42-35.2,5.27-46.26,7.9-4.44,17.42-5.99,26.2-8.86-.24,1.65-.47,3.3-.71,4.95,4.7,2.82,9.69,5.28,14.02,8.58,3.95,3.01,7.18,6.94,10.73,10.47-4.27-.83-8.55-1.66-12.82-2.49,2.39,3.29,4.81,6.57,7.15,9.89,1.13,1.6,2.13,3.31,3.19,4.96Z"/><path class="cls-15" d="M573.82,120.03c-1.06-1.66-2.05-3.36-3.19-4.96-2.35-3.32-4.77-6.6-7.15-9.89,4.27.83,8.55,1.66,12.82,2.49,5.71,9.1,11.41,18.2,17.12,27.3.38,2.13.77,4.27,1.09,6.08-6.99-5.58-13.64-10.9-20.3-16.22-.13-1.6-.26-3.2-.4-4.8Z"/><path class="cls-14" d="M650.3,73.12c3.32-4.32,6.64-8.64,9.96-12.97,1.38.48,2.76.95,4.14,1.43-2.39,8.79-4.78,17.59-7.17,26.38-2.37-.85-4.74-1.7-7.11-2.55.06-4.1.12-8.19.18-12.29Z"/><path class="cls-16" d="M421.12,752.81c-.03,17.76-12.05,13.56-22.17,11.67-5.03-.94-9.74-3.6-18.79-7.1,4.88,8.59,8.14,14.34,11.41,20.09-30.45,14.36-63.17,11.1-95.32,12.23,2.77-11.63,5.53-23.26,8.26-34.72,3.25,1.38,7.55,3.2,11.85,5.02-10.3-7.33-16.76-14.36-8.62-26.86,25.13,6.24,50.15,12.98,75.47,18.36,6.2,1.32,13.55-1.18,20.02-3.11,7.22-2.15,14.74-8.66,17.91,4.43Z"/><path class="cls-3" d="M147.26,699.23c14.91-4.29,29.82-8.57,44.73-12.86-.68-5.98-2.11-11.99-1.81-17.92.23-4.75,2.55-9.4,5.26-12.94.14,24.46,21.52,16.07,34.26,26.61-23.56,7.99-47.13,15.98-70.7,23.98-3.91-2.29-7.82-4.58-11.73-6.87Z"/><path class="cls-2" d="M307.73,733.13c-8.14,12.51-1.68,19.53,8.62,26.86-4.3-1.82-8.59-3.64-11.85-5.02-2.73,11.46-5.49,23.09-8.26,34.72-1.05,1.71-2.1,3.42-3.15,5.13-2.48,0-4.95,0-7.43,0,17.13-19.16,15.05-39.9-4.69-66.4,7.22,1.27,16.99,2.98,26.76,4.69Z"/><path class="cls-43" d="M447.38,767.26c-4.8-8.11-9.6-16.22-14.4-24.32-3.27-10.59-6.54-21.18-9.82-31.77,4.9,3.45,9.81,6.89,14.71,10.34,4.52,11.76,9.48,23.38,13.22,35.38.87,2.8-2.37,6.88-3.72,10.38Z"/><path class="cls-21" d="M657.23,230.43c5.85-3.18,11.7-6.37,17.54-9.55-.15,2.89-.29,5.78-.48,9.48,15.95,13.62,16.34,15.78-3.38,32.28-11.02,9.22-20.91,16.04-1.37,26.27,2.14,1.12,1.9,6.8,2.76,10.36-5.59-.56-11.69.12-16.67-1.93-10.21-4.2-19.48-10.78-29.79-14.64-8.39-3.14-12.5,1.37-12.67,10.7-.21,11.81-2.06,23.58-2.65,35.4-.22,4.34,1.13,8.77,1.77,13.15,5.09-2.2,10.76-3.64,15.05-6.9,2.28-1.73,1.86-6.73,3.2-10.05,2.27-5.63,4.95-11.1,7.46-16.64,5.58,6.71,12.65,12.78,15.93,20.47,1.16,2.73-6,11-11.01,13.77-4.41,2.44-11.24.05-16.79,1.01-9.19,1.59-15.01,4.93-6.95,15.44,3.53,4.61,4.43,11.22,6.53,16.93-3.77-3.22-8.87-5.73-11.03-9.8-4.53-8.58-7.52-17.97-11.14-27.03,2.46-17.77,5.48-35.5,7.01-53.35.43-5.01-3.06-10.64-5.7-15.47-1.04-1.91-5.07-3.75-7-3.17-1.84.55-4,4.38-3.84,6.62,1.55,22.02-5.14,45.3,9.54,65.39-.88,3.12-1.76,6.25-2.64,9.38-4.03-14.65-8.06-29.31-12.1-43.97-.06-1.62-.11-3.24-.17-4.86.09-10.94-.74-22.01.74-32.77.58-4.21,5.78-8.93,10.04-10.93,1.72-.81,6.66,4.95,9.97,7.91,3.09,2.76,5.95,5.77,8.91,8.67,9.37-.92,18.96-.92,28.01-3.14,4.95-1.21,8.98-6.17,13.43-9.44-.89-2.13-1.52-4.43-2.72-6.37-3.75-6.07-7.72-12-11.61-17.99,3.94-1.74,7.88-3.49,11.82-5.23Z"/><path class="cls-39" d="M722.22,386.25c-.14,2.34-.28,4.69-.42,7.03-7.97,9.63-15.22,19.99-24.09,28.7-11.82,11.62-24.96,11.9-37.63.4,11.04-12.58,22.41-24.89,33-37.84,6.05-7.4,11.37-9.88,19.19-2.55,2.47,2.32,6.59,2.89,9.95,4.26Z"/><path class="cls-38" d="M751.03,161.91c.05,2.41.11,4.82.16,7.23-2.15,11.91-3.35,24.12-6.94,35.58-1.42,4.54-8.16,7.42-12.48,11.06-2.44-3.58-5.94-6.84-7.13-10.8-3.58-11.89-4.87-24.64-9.67-35.94-4.89-11.53-4.39-18.43,8.59-22.02,2.6-.72,4.83-2.79,7.8-4.58-11.35-17.59-19.6-38.03-46.04-34.79-.78.01-1.56.02-2.35.03.4-5.54.8-11.07,1.21-16.61.46-.4.92-.8,1.39-1.19.63.52,1.23,1.49,1.87,1.52,27.54,1.14,42.23,18.99,53.72,41.08.5.96,1.92,1.45,2.91,2.16,0,0,0,0-.01,0-1.62,8.11-3.24,16.22-4.87,24.36,3.6.89,7.72,1.91,11.84,2.93Z"/><path class="cls-18" d="M667.56,178.97c-.06.71-.11,1.41-.16,2.13-6.46,1.83-12.93,3.65-19.39,5.47-4.47-.24-8.94-.49-13.41-.73.8-1.24,1.61-2.48,2.41-3.71-6.25-4.87-12.51-9.74-20.19-15.72.28,5.37.42,8.07.3,5.75-10.47,2.25-19.02,2.97-26.65,6.02-9.76,3.9-17.27,14.67-30.34,6.9-1.63-.97-11.16,6.22-12.58,10.96-4.32,14.46,1.15,26.97,11.19,38.12,8.87,9.85,16.66,20.68,24.93,31.07-16.61-15.3-36.71-26.58-46.1-49.53-10.62-25.96-1.92-42.31,26.65-44.11,2.34-.21,4.98.2,6.96-.75,5.7-2.72,11.16-8.63,16.67-8.58,27.55.24,56.14-2.94,79.7,16.72Z"/><path class="cls-9" d="M684.18,91.06c-.4,5.54-.81,11.07-1.21,16.61-2.62,4.31-5.25,8.62-7.87,12.94-1.84.06-3.69.11-5.53.17-1.65-8.51-3.3-17.02-4.95-25.53h13.07c1.62-1.05,4.05-2.62,6.49-4.19Z"/><path class="cls-9" d="M583.67,265.22c-8.27-10.39-16.06-21.22-24.93-31.07-10.04-11.15-15.51-23.66-11.19-38.12,1.42-4.74,10.95-11.93,12.58-10.96,13.07,7.77,20.57-3,30.34-6.9,7.63-3.05,16.18-3.77,26.65-6.02.12,2.33-.02-.37-.3-5.75,7.68,5.98,13.94,10.85,20.19,15.72-.8,1.24-1.61,2.48-2.41,3.71,4.47.24,8.94.49,13.41.73-11.55,3.65-23.23,6.95-34.62,11.05-11.69,4.21-17.32,12.04-11.64,24.64,2.82,6.26,6.15,12.29,9.25,18.42,3.51,1.55,7.53,5.03,10.44,4.27,8.24-2.16,16.02-6.06,23.98-9.28,3.89,5.99,7.85,11.92,11.61,17.99,1.2,1.94,1.83,4.23,2.72,6.37-6.17-2.72-12.12-6.62-18.58-7.87-7.66-1.48-15.76-.68-23.66-.87.27,7.1.53,14.21.8,21.31-2.96-2.9-5.82-5.91-8.91-8.67-3.31-2.96-8.25-8.72-9.97-7.91-4.26,2-9.46,6.72-10.04,10.93-1.48,10.75-.65,21.82-.74,32.77-1.66-11.5-3.32-22.99-4.97-34.49Z"/><path class="cls-9" d="M588.81,304.57c4.03,14.66,8.07,29.32,12.1,43.97-8.66,2.94-14.48-3.36-13.75-14.76.62-9.73,1.1-19.47,1.65-29.21Z"/><path class="cls-34" d="M184.46,769.98c6.82-2.48,13.83-4.52,20.4-7.54,8.57-3.94,17.52-4.58,19.7,5.48,1.22,5.64-5.04,12.9-7.93,19.43-3.51-9.73-9.35-13.9-20.39-11.06-3.17.82-7.82-4.05-11.78-6.32Z"/><path class="cls-8" d="M152.98,735.97c6.99,2.76,15.56,4,20.3,8.93,2.4,2.49-2.11,11.64-3.49,17.78-15.11-2.93-14.7-15.61-16.81-26.71Z"/><path class="cls-29" d="M611,240.68c-3.1-6.13-6.43-12.16-9.25-18.42-5.68-12.6-.04-20.42,11.64-24.64,11.39-4.11,23.07-7.4,34.62-11.05,6.47-1.82,12.93-3.65,19.39-5.47,5.79,2.02,16.33-9.26,17.33,6.16.95,14.68-11.68,31.83-23.54,33.21-7.05.82-13.9,3.39-20.84,5.18-9.78,5.01-19.56,10.02-29.35,15.02Z"/><path class="cls-22" d="M611,240.68c9.78-5.01,19.56-10.02,29.35-15.02,5.63,1.59,11.26,3.19,16.89,4.78-3.94,1.74-7.88,3.49-11.82,5.23-7.96,3.22-15.74,7.12-23.98,9.28-2.9.76-6.93-2.72-10.44-4.27Z"/><path class="cls-2" d="M290.47,804.65h42.56c.22,1.76.43,3.52.65,5.27-15.31,2.22-30.63,4.43-45.94,6.65,6.11-2.78,10.25-6.02,2.74-11.92Z"/><path class="cls-9" d="M751.03,161.91c-4.12-1.02-8.24-2.04-11.84-2.93,1.63-8.14,3.25-16.25,4.87-24.36,2.58,4.93,5.16,9.86,7.73,14.8,1.36-.26,2.72-.51,4.08-.77-1.61,4.42-3.23,8.84-4.84,13.26Z"/><path class="cls-39" d="M447.38,767.26c1.35-3.49,4.59-7.58,3.72-10.38-3.75-12-8.7-23.62-13.22-35.38,3.26-7.36,6.51-14.71,10.34-23.36,6.4,3.13,12.77,6.25,19.11,9.35,4.18-19.33,17.79-8.26,27.74-8.83,4.18,3.67,9.46,6.66,12.29,11.18,4.2,6.73,6.67,14.54,10.24,22.7-3.84-1.91-7.26-3.61-11.78-5.87-.97,4.34-1.78,7.95-1.94,8.69-7.21,4.54-12.45,7.84-17.7,11.15.61,1.08,1.22,2.15,1.83,3.23,3.89-.76,7.78-1.52,11.67-2.29-13.34,19.24-35.34,12.06-52.28,19.81Z"/><path class="cls-39" d="M468.03,631.83c-2.39,7.04-5.54,13.95-6.7,21.18-.35,2.19,4.8,7.45,7.49,7.49,6.32.1,12.68-2.11,19.02-3.38,3.01,9.05,6.22,18.05,8.85,27.21.58,2.01-.94,4.62-1.49,6.96-13.12-3.3-28.04-3.71-38.96-10.52-20.2-12.6-18.47-30.43-1.95-47.5,5.71-5.91,4.4-18.6,6.3-28.2,2.48,8.92,4.96,17.84,7.44,26.76Z"/><path class="cls-20" d="M524.72,292.34c-2.72-4.64-5.45-9.28-8.17-13.93,1.1-1.12,2.2-2.24,3.3-3.35,4.17,3.31,8.35,6.61,12.52,9.92-2.59,2.43-5.17,4.86-7.76,7.29,0,0,.11.08.11.08Z"/><path class="cls-7" d="M603.55,339.17c-14.68-20.09-7.99-43.37-9.54-65.39-.16-2.24,2-6.07,3.84-6.62,1.93-.58,5.96,1.26,7,3.17,2.64,4.83,6.13,10.47,5.7,15.47-1.53,17.85-4.55,35.57-7.01,53.35,0,0,0,.02,0,.02Z"/><path class="cls-22" d="M618.3,272.6c-.27-7.1-.53-14.21-.8-21.31,7.91.19,16.01-.61,23.66.87,6.46,1.25,12.41,5.14,18.58,7.87-4.45,3.27-8.48,8.23-13.43,9.44-9.05,2.22-18.64,2.22-28.01,3.14Z"/></g></svg>